<svg xmlns="http://www.w3.org/2000/svg" fill="none" viewBox="0 0 226 124"><path fill="#D1D2FA" d="m117.97 56 38.97 68H79l38.97-68Z"/><path fill="#A3A6F5" d="m111.97 52 38.97 68H73l38.97-68Z"/><path fill="#333699" d="M114.18 104.4a5.4 5.4 0 0 1-2.3-.88c-1.03-.6-1.88-1-2.56-1.2-.5.54-.98.97-1.45 1.3-.45.33-.76.49-.92.49-.17 0-.46-.26-.88-.77-.41-.53-.62-.92-.62-1.19 0-.28.24-.67.73-1.16.5-.52 1.07-.77 1.71-.77.4 0 .79.04 1.17.13 1.02-.82 2-2.01 2.92-3.57.93-1.57 1.39-2.94 1.39-4.11a2 2 0 0 0-2.05-2.11c-.55 0-1.1.18-1.65.55-.52.36-.98.87-1.36 1.52l-1.01-.44c.3-.93.95-1.8 1.98-2.6a5.5 5.5 0 0 1 3.45-1.21c1.28 0 2.27.34 2.97 1.03a3.45 3.45 0 0 1 1.08 2.6c0 .75-.22 1.57-.66 2.46-.43.88-.98 1.73-1.65 2.53a28.27 28.27 0 0 1-3.78 3.74c1.83.5 3.25.75 4.24.75.28 0 .49-.07.62-.22a7 7 0 0 0 .61-1.08l.73.16c-.15 2.7-1.05 4.05-2.7 4.05Z"/><circle cx="43.5" cy="41.5" r="37.5" fill="#F0EC75"/><circle cx="37.5" cy="37.5" r="37.5" fill="#E6DF1A"/><path fill="#938F10" d="M35.2 44.07h-.22c.03-1.07.45-3.36 1.25-6.87.81-3.52 1.21-5.62 1.21-6.31 0-.34 0-.54-.02-.62-.8.44-1.68 1.14-2.64 2.1a1.88 1.88 0 0 1-.55-.47 4.2 4.2 0 0 1-.4-.62l-.13-.26 3.68-2.35c1.08-.2 2.2-.29 3.34-.29.18.3.27.76.27 1.4 0 .64-.19 1.75-.55 3.35-.37 1.59-.75 3.36-1.15 5.33-.4 1.95-.61 3.67-.66 5.17-.53.29-1.67.44-3.43.44Z"/><path fill="#D1FAE4" fill-rule="evenodd" d="M210.5 32a3 3 0 0 0-3-3h-26a3 3 0 0 0-3 3v9.5a3 3 0 0 1-3 3H166a3 3 0 0 0-3 3v26a3 3 0 0 0 3 3h9.5a3 3 0 0 1 3 3V89a3 3 0 0 0 3 3h26a3 3 0 0 0 3-3v-9.5a3 3 0 0 1 3-3h9.5a3 3 0 0 0 3-3v-26a3 3 0 0 0-3-3h-9.5a3 3 0 0 1-3-3V32Z" clip-rule="evenodd"/><path fill="#9AF4C4" fill-rule="evenodd" d="M204.5 28a3 3 0 0 0-3-3h-26a3 3 0 0 0-3 3v9.5a3 3 0 0 1-3 3H160a3 3 0 0 0-3 3v26a3 3 0 0 0 3 3h9.5a3 3 0 0 1 3 3V85a3 3 0 0 0 3 3h26a3 3 0 0 0 3-3v-9.5a3 3 0 0 1 3-3h9.5a3 3 0 0 0 3-3v-26a3 3 0 0 0-3-3h-9.5a3 3 0 0 1-3-3V28Z" clip-rule="evenodd"/><path fill="#1FAD61" d="M184.52 50.81c.3-.9.88-1.68 1.78-2.37.9-.7 1.93-1.06 3.1-1.06 1.19 0 2.14.32 2.86.97.74.63 1.1 1.4 1.1 2.3 0 .92-.34 1.72-1.01 2.43a5.35 5.35 0 0 1-2.53 1.43c1 .17 1.81.6 2.44 1.27.65.68.97 1.55.97 2.62 0 1.35-.56 2.5-1.7 3.46a6 6 0 0 1-3.95 1.4 5.3 5.3 0 0 1-3.92-1.45 2.4 2.4 0 0 1-.77-1.78c0-.22.06-.48.18-.8.11-.31.26-.56.44-.74.14-.03.3-.04.48-.04 1.04 0 1.84.27 2.4.83l-.31 2.33c.2.17.55.25 1.03.25.74 0 1.37-.39 1.9-1.15.54-.78.81-1.7.81-2.75s-.23-1.77-.7-2.15c-.47-.4-1.25-.6-2.34-.6l-.5.02.13-1.12c.72-.07 1.25-.19 1.6-.35.37-.18.71-.38 1.02-.62.69-.5 1.03-1.24 1.03-2.22 0-.61-.17-1.07-.5-1.36-.33-.31-.72-.46-1.17-.46-1.2 0-2.17.7-2.9 2.13l-.97-.42Z"/></svg>